<?xml version="1.0" encoding="UTF-8"?>
<svg id="_Шар_4" data-name="Шар 4" xmlns="http://www.w3.org/2000/svg" viewBox="0 0 860.9 860.9">
  <defs>
    <style>
      .cls-1 {
        stroke-miterlimit: 10;
      }

      .cls-1, .cls-2 {
        fill: none;
        stroke: #fff;
        stroke-linecap: round;
        stroke-width: 5px;
      }

      .cls-2 {
        stroke-linejoin: round;
      }
    </style>
  </defs>
  <path class="cls-1" d="M745.35,581.73c-.28.41-.57.82-.85,1.23"/>
  <path class="cls-1" d="M642.24,684.79c27.18-15.88,52.08-39.06,73.87-64.75"/>
  <path class="cls-1" d="M764.9,551.3c19.52-32.58,33.22-62.69,39.54-81.35"/>
  <path class="cls-1" d="M202.89,516.79l72.36,51.97c13.89,9.98,25.58,22.71,34.33,37.4l28.54,47.92"/>
  <path class="cls-1" d="M208.83,508.53s4.41,7.09,3.49,15.03"/>
  <path class="cls-1" d="M224.57,519.63s1.81,6.88,0,12.73"/>
  <path class="cls-1" d="M238.76,528.92s7.77,12.19,7.11,18.74"/>
  <path class="cls-1" d="M252.44,532.36s8.71,17.45,9.91,27.13"/>
  <path class="cls-1" d="M235.15,557.05s9.54-.77,17.29-4.67"/>
  <path class="cls-1" d="M210.64,541.82s18.42,1.2,23.27-2.75"/>
  <path class="cls-1" d="M304.05,435.5s-32.15,83.72-9.95,149.94"/>
  <path class="cls-1" d="M318.38,587.37s7.41-19.04-14.32-38.45c-13.29-11.87-17.03-29.29-17.03-29.29"/>
  <path class="cls-1" d="M323.25,466.43s-4.97,20.78-22.84,25.94c-11.29,3.25-13.06,18.1-13.06,18.1"/>
  <path class="cls-1" d="M279.31,444.56s1.06,20.9,14.17,27.58"/>
  <path class="cls-1" d="M262.87,373.82s-8.67,134.13,23.42,173.84"/>
  <path class="cls-1" d="M227.76,444.56s14.26,50.92,40.61,59.81"/>
  <path class="cls-1" d="M135.76,355.08s52.69,143.29,136.79,164.55"/>
  <path class="cls-1" d="M172.92,293.66s1.17,105.65,43.16,191.66"/>
  <path class="cls-1" d="M158.21,359.47s8.92,28.32,28.33,39.32"/>
  <path class="cls-1" d="M201.23,294.91s15.87-26.71,53.03-27.1c37.16-.39,61.55-35.61,61.55-35.61l26.52-23.4"/>
  <path class="cls-1" d="M331.69,246.14s-6.74,8.52-23.89,9.68-19.01,1.36-19.01,1.36"/>
  <path class="cls-1" d="M312.52,273.04s-11.42-1.94-16.84-5.81-18.76-4.03-18.76-4.03"/>
  <path class="cls-1" d="M526.28,671.34c-143.48-48.52-176-182.89-176-182.89"/>
  <path class="cls-1" d="M505.04,72.59s-172.9,11.87-225.55,118.71"/>
  <path class="cls-1" d="M360.27,136.33s-17.76-7.87-42.04,5.74"/>
  <path class="cls-1" d="M348.91,99.95s-2.18,14.28-10.9,27.01"/>
  <path class="cls-1" d="M416.34,747.34s25.91,5.72,37.68,8.26c26.32,5.68,89.29-.52,89.29-.52"/>
  <path class="cls-1" d="M530.67,728.76s-29.93,25.95-42.58,29.23"/>
  <path class="cls-1" d="M526.28,779.08s-13.68-16.89-27.87-21.09"/>
  <path class="cls-1" d="M581.25,624.24c-107.23,111.2-184.05,75.97-181.64,78.8"/>
  <path class="cls-1" d="M558.79,685.92s-7.4-17.43-29.12-16.46"/>
  <path class="cls-1" d="M543.31,693.4s-15.79-12.49-39.38-8.31"/>
  <path class="cls-1" d="M206.02,577.27s34.71,92.52,73.29,110.71"/>
  <path class="cls-1" d="M224.57,585.43s-5.21,3.13-7.43,18"/>
  <path class="cls-1" d="M199.83,598.95s10.83,12.34,22.45,15.27"/>
  <path class="cls-1" d="M242.34,594.44s.33,9-2.45,14.77c-1.5,3.13-9.53,20.6-9.53,20.6"/>
  <path class="cls-1" d="M128.99,616.18s39.1,23.61,59.23,23.61,49.32,8.5,67.43,28.25"/>
  <path class="cls-1" d="M188.21,639.79c-15.1,18.19-35.61,12.39-35.61,12.39"/>
  <path class="cls-1" d="M170.41,614.22s20.21,10.71,21.91,25.69"/>
  <path class="cls-1" d="M147.96,608.56s4.38,14.84,13.42,24.06"/>
  <path class="cls-1" d="M135.76,634.5s14.34-4.24,24.11-2.51"/>
  <path class="cls-1" d="M132.9,519.86c5.71,14.94,40.48,92.78,89.93,126.71"/>
  <path class="cls-1" d="M171.34,555.92s-2.01,27.24.44,35.41"/>
  <circle class="cls-1" cx="146.95" cy="602.77" r="5.76"/>
  <circle class="cls-1" cx="318.64" cy="274.05" r="5.76"/>
  <circle class="cls-1" cx="392.27" cy="142.08" r="5.76"/>
  <circle class="cls-1" cx="360.27" cy="69.85" r="5.76"/>
  <circle class="cls-1" cx="238.59" cy="223.17" r="5.76"/>
  <circle class="cls-1" cx="79.87" cy="406.27" r="5.76"/>
  <circle class="cls-1" cx="226.75" cy="438.58" r="5.76"/>
  <circle class="cls-1" cx="185.39" cy="492.45" r="5.76"/>
  <path class="cls-1" d="M142.11,500.41c2.69,8.21-1.79,17.04-9.99,19.73-8.21,2.69-17.04-1.79-19.73-9.99-2.69-8.21,4.56-8.58,12.76-11.27,8.21-2.69,14.27-6.67,16.96,1.54Z"/>
  <circle class="cls-1" cx="204.27" cy="571.7" r="5.76"/>
  <circle class="cls-1" cx="591.68" cy="706.91" r="5.76"/>
  <circle class="cls-1" cx="735.7" cy="550.94" r="5.76"/>
  <circle class="cls-1" cx="778.33" cy="577.34" r="5.76"/>
  <circle class="cls-1" cx="740.28" cy="615.47" r="5.76"/>
  <circle class="cls-1" cx="228.59" cy="580.43" r="5.76"/>
  <circle class="cls-1" cx="124.16" cy="612.75" r="5.76"/>
  <circle class="cls-1" cx="129.87" cy="636.24" r="5.76"/>
  <circle class="cls-1" cx="587.15" cy="706.02" r="17.03"/>
  <circle class="cls-1" cx="80.79" cy="409.48" r="17.03"/>
  <circle class="cls-1" cx="384.67" cy="141.94" r="24.32"/>
  <path class="cls-1" d="M745.92,583.58h0c-.22-.61-.41-1.22-.57-1.85-.57-2.04-.87-4.2-.87-6.42,0-9.7,5.68-18.08,13.91-21.98,2.03-.97,4.22-1.66,6.51-2.03,1.27-.2,2.57-.31,3.9-.31,13.43,0,24.31,10.89,24.31,24.32s-10.88,24.31-24.31,24.31c-3.65,0-7.12-.81-10.23-2.26"/>
  <circle class="cls-1" cx="735.7" cy="605.64" r="24.32"/>
  <path class="cls-1" d="M724.9,583.85c-8.01-3.97-13.52-12.23-13.52-21.78,0-13.43,10.89-24.32,24.32-24.32,10.35,0,19.19,6.47,22.69,15.58"/>
  <circle class="cls-1" cx="354.77" cy="76.35" r="24.32"/>
  <circle class="cls-1" cx="539.97" cy="718.78" r="13.74"/>
  <circle class="cls-1" cx="534.89" cy="790.62" r="13.74"/>
  <path class="cls-1" d="M644.32,732.15h-.01c-2.2,1.5-4.85,2.37-7.71,2.37-7.59,0-13.75-6.15-13.75-13.74s6.16-13.74,13.75-13.74c2.46,0,4.77.65,6.77,1.79"/>
  <ellipse class="cls-1" cx="658.67" cy="709.96" rx="15.37" ry="11.52"/>
  <path class="cls-1" d="M661.21,721.32c2.1,1.48,4.01,3.55,5.48,6.1,4.24,7.35,3.22,15.88-2.29,19.06-5.51,3.18-13.42-.19-17.66-7.54-4.25-7.35-3.22-15.89,2.29-19.07.29-.17.59-.32.89-.44"/>
  <circle class="cls-1" cx="345.54" cy="718.68" r="13.74"/>
  <path class="cls-2" d="M668.02,665.1s9.08-25.53-10.15-45.38c-8.95,26.15,10.15,45.38,10.15,45.38Z"/>
  <path class="cls-2" d="M282.75,685.45c-14.41-19.28-36.79-59.81-20.96-110.99,33.78,32.84,37.67,72.61,35.81,97.93"/>
  <path class="cls-2" d="M671.49,664.37s20.28-17.98,13.01-44.65c-20.46,18.59-13.01,44.65-13.01,44.65Z"/>
  <path class="cls-2" d="M691.36,660.95s27.07,1.33,40.52-22.82c-27.62-1.01-40.52,22.82-40.52,22.82Z"/>
  <path class="cls-2" d="M694.08,663.82s23.06,14.23,46.5-.43c-23.7-14.22-46.5.43-46.5.43Z"/>
  <path class="cls-2" d="M692.95,664.37c.36,1.5,7.05,26.55,33.19,32.57-6.71-26.81-33.19-32.57-33.19-32.57Z"/>
  <path class="cls-2" d="M689.58,665.54s-7.25,26.11,13.34,44.55c7.07-26.72-13.34-44.55-13.34-44.55Z"/>
  <line class="cls-1" x1="676.5" y1="660.18" x2="691.15" y2="663.06"/>
  <path class="cls-2" d="M773.35,599.19c7.62,2.28,16.05,6.94,22.71,16.12-16.68,2.63-29-4.61-36.07-10.65"/>
  <path class="cls-2" d="M759.99,604.99c7.79,5.02,18.6,14.93,20.74,32.09-12.19-4.42-19.32-12.69-23.46-20.22"/>
  <path class="cls-2" d="M713.53,595.63c-8.66,3.12-23.73,5.92-39.05-3.5,17.64-10.76,34.89-5.39,42.48-2"/>
  <path class="cls-2" d="M720.02,587.05c-3.53-5.32-16.47-21.92-39.68-20.9,11,19.42,30.76,22.16,37.96,22.5"/>
  <path class="cls-2" d="M713.17,571.25c-.3,3.11-.78,4.99-.78,4.99,0,0-20.8-17.37-14.32-44.24,8.5,7.28,12.47,15.93,14.18,23.64"/>
  <path class="cls-2" d="M766.3,548.95s15.8-32.02-6.33-60.95c-15.71,32.86,6.33,60.95,6.33,60.95Z"/>
  <path class="cls-2" d="M492.89,657.65s27.56-22.71,19.26-58.17c-27.82,23.5-19.26,58.17-19.26,58.17Z"/>
  <path class="cls-2" d="M444.22,694.88s35.56-3.25,48.66-37.23c-36.23,3.76-48.66,37.23-48.66,37.23Z"/>
  <path class="cls-2" d="M460.78,639.2s33.09-21.39,28.5-61.31c-33.48,22.23-28.5,61.31-28.5,61.31Z"/>
  <path class="cls-2" d="M402.7,673.82s39.39.96,58.08-34.62c-40.19-.48-58.08,34.62-58.08,34.62Z"/>
  <path class="cls-2" d="M431.26,616.28s34.09-16.48,34.43-55.1c-34.56,17.24-34.43,55.1-34.43,55.1Z"/>
  <path class="cls-2" d="M371.78,642.43s37.45,5.57,59.48-26.15c-38.27-5.21-59.48,26.15-59.48,26.15Z"/>
  <path class="cls-2" d="M406.99,591.52s31.26-13.12,33.39-47.63c-31.71,13.77-33.39,47.63-33.39,47.63Z"/>
  <path class="cls-2" d="M352.58,612.08s33.22,6.75,54.41-20.56c-33.96-6.47-54.41,20.56-54.41,20.56Z"/>
  <path class="cls-2" d="M387.84,566.71s27.83-8.4,32.74-37.64c-28.28,8.91-32.74,37.64-32.74,37.64Z"/>
  <path class="cls-2" d="M339.6,579.38s27.73,8.73,48.24-12.67c-28.39-8.56-48.24,12.67-48.24,12.67Z"/>
  <path class="cls-2" d="M373.26,543.18s24.89-5.95,30.7-31.4c-25.31,6.38-30.7,31.4-30.7,31.4Z"/>
  <path class="cls-2" d="M330.22,551.84s23.92,9.09,43.05-8.66c-24.51-8.98-43.05,8.66-43.05,8.66Z"/>
  <path class="cls-2" d="M362.36,521.44s20.79-3.78,26.73-24.5c-21.15,4.12-26.73,24.5-26.73,24.5Z"/>
  <path class="cls-2" d="M326.48,526.64s19.31,8.58,35.88-5.2c-19.8-8.51-35.88,5.2-35.88,5.2Z"/>
  <path class="cls-2" d="M353.86,500.12s15.33-1.12,21.24-15.65c-15.63,1.34-21.24,15.65-21.24,15.65Z"/>
  <path class="cls-2" d="M350.25,488.26s5.85-14.22-4.51-26c-5.79,14.58,4.51,26,4.51,26Z"/>
  <path class="cls-2" d="M327.49,501.09s13.3,7.71,26.37-.97c-13.67-7.69-26.37.97-26.37.97Z"/>
  <path class="cls-2" d="M155.5,398.88c-12.08-10.08-28.35-18.71-49.71-21.07,16.63,43.97,56.27,56.87,72.41,60.37"/>
  <path class="cls-2" d="M178.06,352.41c2.54-13.1,8.29-27.16,19.57-40.5,17.37,41.41-1.53,76.42-10.46,89.56"/>
  <path class="cls-2" d="M294.72,253.18s22.92-27.38,8.26-60.71c-23.04,28.21-8.26,60.71-8.26,60.71Z"/>
  <path class="cls-2" d="M434.13,85.33s34.94-7.37,43.99-42.65c-35.54,7.96-43.99,42.65-43.99,42.65Z"/>
  <path class="cls-2" d="M434.13,85.33s34.82-7.92,57.8,20.33c-35.61,7.64-57.8-20.33-57.8-20.33Z"/>
  <path class="cls-2" d="M295.43,165.96s28.8-21.11,61.12-4.32c-29.64,21.17-61.12,4.32-61.12,4.32Z"/>
  <path class="cls-2" d="M269.28,171.4s-2.78-19.28,13.58-30.54c2.6,19.69-13.58,30.54-13.58,30.54Z"/>
  <path class="cls-2" d="M281.23,121.81s-18.82-18.8-3.66-41.19c18.87,19.36,3.66,41.19,3.66,41.19Z"/>
  <path class="cls-2" d="M306.12,153.59s-19.25-40.65,9.21-76.63c19.12,41.7-9.21,76.63-9.21,76.63Z"/>
  <path class="cls-2" d="M316.04,232.23s35.14-6.34,45.23-41.34c-35.76,6.91-45.23,41.34-45.23,41.34Z"/>
  <path class="cls-2" d="M787.09,510.63s15.8-32.02-6.33-60.95c-15.71,32.86,6.33,60.95,6.33,60.95Z"/>
  <path class="cls-2" d="M766.3,548.95s35.71.09,51.93-32.52c-36.42.36-51.93,32.52-51.93,32.52Z"/>
  <path class="cls-2" d="M787.35,510.06s35.47-4.15,47.71-38.45c-36.12,4.67-47.71,38.45-47.71,38.45Z"/>
  <path class="cls-2" d="M804.5,470s24.49-25.99,11.8-60.13c-24.65,26.81-11.8,60.13-11.8,60.13Z"/>
  <path class="cls-2" d="M573.43,657.31s12.49,41.25,76.4,7.32c-56.31-45.45-76.4-7.32-76.4-7.32Z"/>
  <path class="cls-2" d="M538.07,640.51s42.64-6.29,18.46-74.5c-53.23,49.02-18.46,74.5-18.46,74.5Z"/>
  <path class="cls-2" d="M582.14,622.39s43.17,20.48,62.94-57.28c-79.27,12.37-62.94,57.28-62.94,57.28Z"/>
  <path class="cls-2" d="M222.77,178.01s47.75-1.79,29.33-79.88c-64.58,47.61-29.33,79.88-29.33,79.88Z"/>
  <path class="cls-2" d="M544.23,754.26s16.36,39.87,76.75,0c-60.39-39.87-76.75,0-76.75,0Z"/>
  <path class="cls-2" d="M432.5,750.9s53.09-.23,76.88-48.88c-54.14.9-76.88,48.88-76.88,48.88Z"/>
  <path class="cls-2" d="M432.5,750.9s52.77,5.84,71.29,56.72c-53.74-6.61-71.29-56.72-71.29-56.72Z"/>
  <path class="cls-2" d="M422.29,777.23s-6.77,13.22,17.21,20.1c-3.1-24.75-17.21-20.1-17.21-20.1Z"/>
  <path class="cls-2" d="M539.49,661.81c12.15-8.78,33.94-4.5,33.94-4.5,0,0,26.76-6.91,76.4,7.32"/>
  <path class="cls-2" d="M556.53,566.01s-6.87,60.73-18.46,74.5c0,0-4.79,22.76-10.26,29.78"/>
  <path class="cls-2" d="M645.07,565.11s-41.08,27.97-62.94,57.28"/>
  <path class="cls-2" d="M544.23,754.26s28.76-5.49,53.22,0"/>
  <path class="cls-2" d="M432.5,750.9s32.23,20.26,46.36,36.71"/>
  <path class="cls-2" d="M432.5,750.9s31.46-13.04,43.46-29.37"/>
  <path class="cls-1" d="M663.59,708.64s5.31-1.53,10.35,2.58"/>
  <path class="cls-1" d="M660.78,737.21s1.91,5.19-2.62,10.34"/>
  <path class="cls-2" d="M82.57,376.83s32.05-15.58-4.01-63.34c-29.75,51.92,4.01,63.34,4.01,63.34Z"/>
  <path class="cls-2" d="M221.13,439.81c-3.08-.85-7.59-5.64-11.21-12.21-4.51-8.2-5.9-16.09-3.11-17.62,1.47-.81,3.81.31,6.35,2.75,2.28,2.19,4.73,5.45,6.86,9.33.46.84.89,1.68,1.28,2.5,1.53,3.21,2.56,6.28,3.01,8.81"/>
  <path class="cls-2" d="M221.3,424.56c-.25-1.48-.43-3.06-.53-4.7-.27-4.16,0-8,.66-11,.82-3.74,2.24-6.17,4-6.28,1.98-.13,3.91,2.7,5.24,7.11h0"/>
  <line class="cls-2" x1="227.34" y1="432.85" x2="227.33" y2="432.85"/>
  <path class="cls-2" d="M213.16,412.73c-.18-4.47.71-7.66,2.58-8.19,1.65-.46,3.73,1.24,5.69,4.32"/>
  <path class="cls-2" d="M228.16,433c-.72-3.2-.86-7.61-.27-12.4.52-4.24,1.53-8.05,2.78-10.9h0c1.48-3.4,3.29-5.43,5.01-5.22,3.16.39,4.79,8.24,3.64,17.53-1.04,8.37-3.97,15.06-6.84,16.02"/>
  <path class="cls-1" d="M218.37,212.25c-.19-.32-.36-.65-.52-.98-3.22-6.84-.28-15.01,6.57-18.23s15-.27,18.22,6.57c.19.4.35.8.5,1.2"/>
  <path class="cls-1" d="M243.14,200.82c1.24-1.51,2.83-2.77,4.71-3.65,6.85-3.22,15.01-.28,18.23,6.57,2.85,6.06.87,13.16-4.39,16.94"/>
  <path class="cls-1" d="M261.69,220.67c3.18,1.22,5.9,3.62,7.46,6.94,3.22,6.85.27,15.01-6.57,18.23-4.81,2.26-10.25,1.48-14.18-1.54"/>
  <path class="cls-1" d="M222.04,238.64h0c-1.4,3.42-1.41,7.4.28,11,3.22,6.85,11.38,9.79,18.23,6.57,4.8-2.25,7.67-6.94,7.85-11.9"/>
  <path class="cls-1" d="M218.37,212.25c-2.37-.24-4.81.15-7.12,1.24-6.85,3.22-9.79,11.38-6.57,18.22s10.7,9.53,17.36,6.93h0"/>
  <line class="cls-1" x1="82.57" y1="376.83" x2="80.79" y2="339.19"/>
  <path class="cls-2" d="M171.34,555.92s24.48.52,17.41-39.98c-34.47,22.42-17.41,39.98-17.41,39.98Z"/>
  <path class="cls-2" d="M167.15,543.27c-4.59-1.28-11.32-6.16-10.57-23.96,8.64,4.12,12.97,8.41,14.97,12.22"/>
  <line class="cls-1" x1="171.34" y1="555.92" x2="182.05" y2="532.35"/>
  <path class="cls-2" d="M392.14,95.88s35.01,6.67,34.66-53.17c-54.89,23.83-34.66,53.17-34.66,53.17Z"/>
  <line class="cls-1" x1="392.14" y1="95.88" x2="413.21" y2="64.64"/>
  <path class="cls-2" d="M396.12,101.22s4.64,35.34,61.35,16.25c-39.83-44.66-61.35-16.25-61.35-16.25Z"/>
  <line class="cls-1" x1="396.12" y1="101.22" x2="432.38" y2="111.44"/>
  <path class="cls-2" d="M477.78,76.02s27.54-1.82,38.33-27.82c-28.07,2.2-38.33,27.82-38.33,27.82Z"/>
  <path class="cls-2" d="M477.78,76.02s27.25-4.39,43.59,18.53c-27.85,4.14-43.59-18.53-43.59-18.53Z"/>
  <path class="cls-2" d="M505.59,72.43s29.17,20.6,61.19,3.24c-30.01-20.64-61.19-3.24-61.19-3.24Z"/>
  <path class="cls-2" d="M505.59,72.43s24.97-.74,35.81,1.77"/>
  <path class="cls-2" d="M222.77,178.01s4.27-23.7,14.14-39.94"/>
  <path class="cls-2" d="M306.12,153.59s5.45-27.99,4.74-40.77"/>
  <path class="cls-2" d="M260.46,182.61c3.74-3.23,8.82-11.21,8.82-11.21,0,0-6.88-6.9-6.88-13.35"/>
  <line class="cls-2" x1="288.46" y1="679.57" x2="271.79" y2="616.17"/>
  <path class="cls-2" d="M278.98,693.1c-15.5-12.06-61.55-41.58-119.03-20.68,44.81,41.79,98.85,32.52,117.74,27.5"/>
  <path class="cls-2" d="M398.99,762c12.23,24.3,13.66,45.74,13.66,45.74,0,0-26.21-10.47-47.69-36.2"/>
  <path class="cls-2" d="M347.04,742.52v-.02"/>
  <line class="cls-2" x1="340.38" y1="705.95" x2="340.37" y2="705.95"/>
  <line class="cls-2" x1="339.85" y1="705.71" x2="339.84" y2="705.71"/>
  <line class="cls-2" x1="278.22" y1="696.56" x2="201.86" y2="681.58"/>
  <path class="cls-2" d="M153.32,562.72c-13.62-10.07-36.64-21.43-66.28-14.84,25.03,30.31,59.82,30.07,73.87,28.51"/>
  <line class="cls-2" x1="158.72" y1="572.57" x2="113.93" y2="557.55"/>
  <path class="cls-2" d="M373.15,652.99c5.81,2.93,11.29,9.44,15.74,14.6,5.48,6.91,8.32,16.11,4.12,23.68-2.48,3.93-6.39,5.83-10.48,8.38-4.59,2.75-9.5,5.7-14.13,8.46-2.08,1.24-3.92,2.33-5.63,3.17-.01,0-.02,0-.02,0-.86.42-1.69.78-2.5,1.08-.02,0-.03,0-.05.02"/>
  <path class="cls-2" d="M334.89,694.41c-.12-.7-.24-1.42-.37-2.18-.89-5.38-1.82-11.09-2.7-16.43-.72-4.98-1.88-9.34-.41-13.94,1.31-3.48,3.66-6.1,6.59-7.98,5.3-3.38,12.49-4.37,18.87-3.74,5.28.35,11.75.65,16.12,2.77"/>
  <path class="cls-2" d="M350.8,705.99s5.3-5.66,5.69-18"/>
  <path class="cls-2" d="M355.12,708.83c1.34-.94,6.83-5.28,10.1-15.55"/>
  <path class="cls-2" d="M346.06,688.38c1.78,7.97.75,13.64-.15,16.57"/>
  <path class="cls-2" d="M326.06,787.33c6.38,1.31,14.72-.39,21.4-1.67,7.94-1.86,15.32-6.65,17.5-14.12.19-.61.33-1.24.44-1.89.5-4.61-1.39-8.53-3.01-13.07-1.18-3.13-2.42-6.41-3.65-9.67h-.01"/>
  <path class="cls-2" d="M325.89,787.29c-4.74-1.05-10-4.83-14.36-7.83-8.38-5.4-15.86-15.08-12.67-25,1.7-4.52,5.32-7.22,8.97-10.67,1.87-1.7,3.8-3.46,5.74-5.22h.01c2.21-2.02,4.43-4.03,6.57-5.98,2.24-2.04,4.17-3.75,6.03-5.03h0c1.7-1.18,3.34-2,5.11-2.4.11-.03.23-.06.34-.08.54-.09,1.09-.15,1.64-.19"/>
  <path class="cls-2" d="M341.46,731.91s.64,7.73-6.72,17.64"/>
  <path class="cls-2" d="M344.87,750.83c1.17-3.1,1.83-5.89,2.17-8.31v-.02c.75-5.44-.11-9.02-.43-10.12"/>
  <path class="cls-2" d="M326.81,742.76c6.49-5.26,9.18-10.46,10.24-13.27"/>
  <path class="cls-2" d="M280.88,688.18c.53-.93,1.16-1.84,1.87-2.73,1.6-2.05,3.59-4.02,5.71-5.88,2.59-2.28,5.37-4.4,7.85-6.31.42-.3.85-.59,1.29-.87,6.99-4.49,15.67-6.31,22.58-1.97,3.79,2.68,5.48,6.69,7.8,10.91,2.24,4.24,4.63,8.76,6.91,13.08.26.5.52.99.78,1.48,2.05,3.87,3.59,6.93,4.17,9.82h.01c.03.14.05.29.08.43"/>
  <path class="cls-2" d="M332.78,723.8c-.48.49-.97.94-1.48,1.36"/>
  <path class="cls-2" d="M326.19,727.56h0c-2.29.62-4.98.96-8.2,1.31-5.41.6-11.16,1.22-16.55,1.81-5,.45-9.42,1.37-13.94-.34-7.27-3.18-10.34-10.94-10.71-18.81-.12-2.45.02-4.91.38-7.25.16-1.39.33-2.87.53-4.36.15-1.12.32-2.24.53-3.36.21-1.18.45-2.35.76-3.46.46-1.75,1.05-3.37,1.82-4.76"/>
  <path class="cls-2" d="M332.6,713.36s-5.36-5.6-17.67-6.65"/>
  <path class="cls-2" d="M320.69,698.27c8.59,3.26,12.8,7.9,14.39,10.05.25.35.44.63.56.83"/>
  <path class="cls-2" d="M314.77,717.14c8.54-1.42,14.34.16,17.03,1.24"/>
  <path class="cls-2" d="M412.49,742.44c1.66-6.3.41-14.71-.52-21.46-1.12-6.33-4.1-12.42-8.91-15.98-1.78-1.32-3.81-2.29-6.1-2.8-2.08-.34-4.05-.17-6.01.23h-.01c-2.34.49-4.67,1.32-7.19,2.07-5.1,1.62-10.57,3.35-15.7,4.99-1.96.62-3.72,1.19-5.28,1.79-.01,0-.02,0-.02,0-.9.34-1.73.7-2.5,1.08-.02,0-.03,0-.05.02-.69.35-1.34.71-1.93,1.11"/>
  <path class="cls-2" d="M412.44,742.61c-1.3,4.68-5.36,9.73-8.59,13.92-1.4,1.93-3.04,3.8-4.86,5.47-5.79,5.32-13.39,8.66-20.79,5.83-4.42-1.94-6.92-5.7-10.17-9.53-3.02-3.7-6.21-7.62-9.29-11.39h-.01c-.41-.52-.81-1.02-1.22-1.52-3.78-4.63-6.33-7.99-6.88-11.88-.07-.66-.11-1.34-.11-2.01"/>
  <path class="cls-2" d="M375.24,731.75c-8.6-7.13-15.77-7.64-17.06-7.67"/>
  <path class="cls-2" d="M377.06,721.69c-6.29-2.76-11.36-3.27-14.63-3.17-1.39.04-2.46.19-3.15.33"/>
  <path class="cls-2" d="M355.31,728.34c2.75,1.21,7.8,4.17,12.72,10.95"/>
  <path class="cls-2" d="M276.78,711.53c-14.64,4.39-29.83,12.09-44.24,24.85,31.2,12.26,59.36,9.3,81.03,2.19h.01"/>
  <path class="cls-2" d="M134.76,352.9c.41.23.65.35.65.35,0,0,.16-.21.42-.61"/>
  <path class="cls-2" d="M123.58,337.21c-.57-6.25,1.38-11.43,4.98-12.3s7.7,2.85,10.05,8.67"/>
  <path class="cls-2" d="M146.15,344.67c-2.32,5.92-10.09,8.42-10.09,8.42,0,0-4-7.11-1.68-13.04s6.84-9.69,10.09-8.42,4,7.11,1.68,13.04Z"/>
  <path class="cls-2" d="M130.3,341.05c4.77,4.21,4.46,12.36,4.46,12.36,0,0-8.05,1.33-12.82-2.88s-6.77-9.74-4.46-12.36,8.05-1.33,12.82,2.88Z"/>
  <path class="cls-2" d="M128.31,324.18c.41.23.65.35.65.35,0,0,.16-.21.42-.61"/>
  <path class="cls-2" d="M116.8,308.62c-.39-6.27,1.69-11.39,5.31-12.16s7.62,3.06,9.81,8.94"/>
  <path class="cls-2" d="M139.17,316.7c-2.48,5.86-10.32,8.14-10.32,8.14,0,0-3.81-7.22-1.32-13.08s7.1-9.5,10.32-8.14,3.81,7.22,1.32,13.08Z"/>
  <path class="cls-2" d="M123.42,312.64c4.66,4.34,4.12,12.48,4.12,12.48,0,0-8.08,1.11-12.74-3.23s-6.5-9.93-4.12-12.48,8.08-1.11,12.74,3.23Z"/>
  <path class="cls-2" d="M121.57,295.82c.4.24.64.36.64.36,0,0,.17-.21.44-.59"/>
  <path class="cls-2" d="M111.19,279.74c-.17-6.28,2.1-11.32,5.74-11.97s7.5,3.33,9.48,9.29"/>
  <path class="cls-2" d="M133.24,288.62c-2.69,5.77-10.6,7.77-10.6,7.77,0,0-3.55-7.35-.85-13.12s7.44-9.24,10.6-7.77c3.16,1.48,3.55,7.35.85,13.12Z"/>
  <path class="cls-2" d="M117.65,283.99c4.5,4.5,3.67,12.62,3.67,12.62,0,0-8.12.82-12.62-3.68-4.5-4.5-6.14-10.15-3.67-12.62s8.12-.82,12.62,3.68Z"/>
  <path class="cls-2" d="M106.98,250.42c.21-6.27,2.77-11.18,6.45-11.6s7.29,3.77,8.91,9.84"/>
  <path class="cls-2" d="M128.46,260.6c-3.03,5.59-11.05,7.12-11.05,7.12,0,0-3.1-7.55-.07-13.14,3.03-5.59,7.98-8.78,11.05-7.12s3.1,7.55.07,13.14Z"/>
  <path class="cls-2" d="M113.18,255.05c4.22,4.76,2.91,12.82,2.91,12.82,0,0-8.15.33-12.37-4.43s-5.52-10.5-2.91-12.82,8.15-.33,12.37,4.43Z"/>
  <path class="cls-2" d="M116.02,239.27c1.26-1.89,2.56-4.59,2.31-7.44-.47-5.32-3.21-9.43-6.13-9.18-2.93.25-4.92,4.78-4.46,10.1.24,2.71,1.82,5.04,3.31,6.67"/>
  <path class="cls-2" d="M180.17,279.22c.4,8.04-7.27,14.96-7.27,14.96,0,0-8.31-6.12-8.71-14.17s2.86-14.74,7.27-14.96,8.31,6.12,8.71,14.17Z"/>
  <path class="cls-2" d="M179.71,275.44c2.26-1.43,4.52-1.82,6.13-.8,2.96,1.86,2.61,7.73-.78,13.11s-11.49,6.39-11.49,6.39c0,0-.06-.17-.14-.48"/>
  <path class="cls-2" d="M164.27,276.19c-2.39-1.19-4.67-1.35-6.17-.19-2.76,2.14-1.83,7.95,2.07,12.97s12.05,5.22,12.05,5.22c0,0,.04-.17.1-.5"/>
  <path class="cls-2" d="M179.4,250.28c.1,8.05-7.81,14.68-7.81,14.68,0,0-8.08-6.42-8.19-14.48s3.39-14.63,7.81-14.68,8.08,6.42,8.19,14.48Z"/>
  <path class="cls-2" d="M179.08,246.49c2.31-1.35,4.58-1.65,6.15-.58,2.89,1.96,2.32,7.82-1.26,13.08s-11.71,5.96-11.71,5.96c0,0-.05-.17-.13-.49"/>
  <path class="cls-2" d="M163.62,246.68c-2.35-1.28-4.62-1.52-6.16-.41-2.83,2.04-2.12,7.88,1.6,13.04,3.72,5.16,11.85,5.66,11.85,5.66,0,0,.05-.17.11-.49"/>
  <path class="cls-2" d="M179.85,221.58c-.35,8.04-8.63,14.21-8.63,14.21,0,0-7.71-6.87-7.35-14.92.35-8.04,4.22-14.41,8.63-14.21s7.71,6.87,7.35,14.92Z"/>
  <path class="cls-2" d="M179.74,217.78c2.39-1.22,4.67-1.39,6.18-.23,2.77,2.12,1.87,7.94-2,12.98-3.88,5.04-12.03,5.29-12.03,5.29,0,0-.04-.17-.1-.49"/>
  <path class="cls-2" d="M164.3,217.09c-2.27-1.41-4.53-1.78-6.12-.76-2.95,1.87-2.56,7.74.85,13.11,3.42,5.37,11.51,6.32,11.51,6.32,0,0,.06-.17.14-.48"/>
  <path class="cls-2" d="M181.95,192.99c-.83,8.01-9.46,13.68-9.46,13.68,0,0-7.29-7.32-6.46-15.33.83-8.01,5.06-14.13,9.46-13.68s7.29,7.32,6.46,15.33Z"/>
  <path class="cls-2" d="M182.07,189.18c2.45-1.07,4.74-1.11,6.18.14,2.64,2.28,1.4,8.04-2.77,12.84-4.17,4.81-12.33,4.57-12.33,4.57,0,0-.03-.17-.07-.5"/>
  <path class="cls-2" d="M166.7,187.58c-2.18-1.54-4.41-2.04-6.07-1.12-3.05,1.7-3.02,7.58.08,13.14s11.12,6.99,11.12,6.99c0,0,.07-.16.17-.48"/>
  <path class="cls-2" d="M186.23,164.96c-1.6,7.89-10.73,12.7-10.73,12.7,0,0-6.55-7.99-4.95-15.88,1.6-7.89,6.4-13.58,10.73-12.7,4.33.88,6.55,7.99,4.95,15.88Z"/>
  <path class="cls-2" d="M186.72,161.19c2.55-.83,4.82-.65,6.14.73,2.41,2.53.62,8.13-3.99,12.52s-12.71,3.35-12.71,3.35c0,0-.02-.18-.02-.5"/>
  <path class="cls-2" d="M171.57,158.11c-2.02-1.75-4.19-2.46-5.93-1.7-3.2,1.39-3.73,7.25-1.19,13.08s10.39,8.03,10.39,8.03c0,0,.08-.16.21-.46"/>
  <circle class="cls-2" cx="316.05" cy="395.67" r="10.75"/>
  <circle class="cls-2" cx="267.96" cy="329.44" r="10.75"/>
  <path class="cls-2" d="M308.8,403.61c-2.58,2.58-5.06,7.01-6.66,12.33-1.2,4-1.71,7.85-1.58,11.03.17,4.21,1.44,7.25,3.7,7.93s4.86-1.06,7.27-4.33c1.93-2.6,3.7-6.2,4.94-10.32,1.6-5.32,1.98-10.39,1.24-13.96"/>
  <path class="cls-2" d="M322.58,404.19c.59.74,1.11,1.69,1.55,2.81,0,.02.02.05.03.07.18.46.36.95.52,1.48-.01,0,0,.02,0,.04.94,3.2,1.34,7.37.96,11.87-.26,3.09-.83,5.95-1.64,8.41-1.72,5.26-4.46,8.68-7.26,8.46-2.3-.19-4.16-2.81-5.21-6.77"/>
  <path class="cls-2" d="M325.62,400.56c3.31,1.82,6.78,7.44,8.64,14.56.83,3.15,1.24,6.2,1.25,8.9.05,5.32-1.39,9.28-4.04,9.98-2.33.6-5.09-1.44-7.47-5.11"/>
  <path class="cls-2" d="M326.73,394.52c3.77-.15,9.4,4.77,13.5,12.14,4.71,8.47,5.59,16.97,1.98,18.97-1.72.95-4.13.27-6.7-1.62"/>
  <path class="cls-2" d="M324.13,407.01s.02.05.03.07c.15.48.31.97.52,1.48-.01,0,0,.02,0,.04"/>
  <path class="cls-2" d="M305.85,399.03c-.93.26-1.92.77-2.95,1.47-.01,0-.02.01-.04.03-.02.01-.04.04-.07.05-.42.27-.83.6-1.25.95,0,0,0,.02-.03.02-2.57,2.14-5.21,5.43-7.41,9.43-1.48,2.71-2.59,5.41-3.27,7.91-1.48,5.33-1.09,9.71,1.38,11.07,2.08,1.14,5.18-.11,8.33-3"/>
  <path class="cls-2" d="M290.84,418.9c-4.02,1.76-7.45,1.95-9.06.15-1.83-2.04-.85-6.13,2.13-10.54,1.5-2.24,3.52-4.57,5.95-6.74,5.62-5.03,11.76-7.82,15.51-7.34"/>
  <path class="cls-2" d="M301.52,401.56s.02-.01.03-.02c.44-.32.86-.63,1.25-.95.02-.01.04-.04.07-.05.02-.02.03-.02.04-.03"/>
  <path class="cls-2" d="M283.91,408.51c-3.18.15-5.57-.62-6.47-2.35-1.92-3.67,3.51-10.26,12.11-14.74,7.64-3.98,15.22-4.94,18.14-2.52"/>
  <path class="cls-2" d="M263.47,299.2c1.81-8.48,5.74-14.51,9.58-14.07s6.28,7.16,6.15,15.79c-.03,1.45-.12,2.96-.29,4.5-.72,6.31-2.63,11.76-4.97,15.07"/>
  <path class="cls-2" d="M272.46,359.73h0c-1.81,8.5-5.75,14.53-9.59,14.09s-6.32-7.25-6.14-15.97c.02-1.4.11-2.84.28-4.31.73-6.35,2.65-11.84,5.02-15.14"/>
  <path class="cls-2" d="M276.92,335.39c3.3,2.36,8.78,4.27,15.11,5,1.57.18,3.1.28,4.58.29,8.59.12,15.27-2.34,15.7-6.15s-5.63-7.8-14.16-9.6"/>
  <path class="cls-2" d="M237.62,333.92c-8.45-1.82-14.44-5.74-14-9.57s7.3-6.34,16.06-6.14c1.37.03,2.77.12,4.22.28,6.33.73,11.8,2.63,15.11,5"/>
  <path class="cls-2" d="M268.61,318.7c.4-4.04-.68-9.73-3.22-15.57-.6-1.38-1.25-2.7-1.92-3.94-4.21-7.61-9.74-12.25-13.29-10.7-3.52,1.52-3.94,8.62-1.32,16.8"/>
  <path class="cls-2" d="M267.28,340.16c-.4,4.05.68,9.74,3.21,15.59.6,1.4,1.27,2.73,1.96,3.98h0c4.2,7.59,9.72,12.19,13.26,10.66,3.56-1.55,3.93-8.84,1.2-17.18h0s0-.02,0-.02h0"/>
  <path class="cls-2" d="M278.7,330.07c4.03.39,9.71-.7,15.54-3.22,1.38-.6,2.68-1.24,3.91-1.92,7.62-4.21,12.27-9.74,10.73-13.29-1.53-3.54-8.69-3.94-16.92-1.3h0s0,0,0,0h0s0,0,0,0h0"/>
  <path class="cls-2" d="M244.01,348.41c-8.28,2.69-15.48,2.3-17.03-1.25-1.53-3.53,3.07-9.04,10.64-13.24,1.26-.7,2.59-1.35,4-1.97,5.86-2.54,11.57-3.62,15.62-3.21"/>
  <path class="cls-2" d="M239.69,318.21c-6.52-5.84-9.81-12.32-7.5-15.44,2.28-3.08,9.3-1.88,16.67,2.52,1.27.76,2.55,1.61,3.82,2.55,5.14,3.8,8.92,8.21,10.6,11.92"/>
  <path class="cls-2" d="M272.84,339.01c1.68,3.7,5.46,8.08,10.57,11.85,1.17.86,2.32,1.65,3.49,2.33h0s0,.02,0,.02c7.5,4.55,14.67,5.84,16.99,2.72,2.28-3.08-.92-9.46-7.3-15.25"/>
  <path class="cls-2" d="M277.55,324.58c3.71-1.65,8.15-5.46,11.97-10.61.88-1.2,1.7-2.4,2.42-3.6h.01s.01-.02.01-.02c4.49-7.47,5.74-14.58,2.64-16.88-3.11-2.31-9.57.97-15.4,7.45"/>
  <path class="cls-2" d="M256.73,357.84c-5.81,6.41-12.21,9.64-15.3,7.34-3.09-2.29-1.87-9.35,2.58-16.78.75-1.23,1.57-2.49,2.49-3.72,3.76-5.08,8.12-8.84,11.8-10.54"/>
  <path class="cls-2" d="M112.59,504.32c-8.32-8.66-15.84-19.29-22.48-29.44-4.14-6.54-10.71-14.13-7.11-22.14,7.72-14.08,38.12-22.32,52.07-15.56,8.28,4.45,7.29,15.14,7.68,23.31.1,5.47.34,11.19.23,16.76-.11,7.02-1.4,13.4-2.78,19.71"/>
  <line class="cls-2" x1="126.38" y1="498.45" x2="121.56" y2="482.63"/>
  <path class="cls-2" d="M134.35,495.79c-.32-5.87-1.77-17.83-8.01-23.26"/>
  <path class="cls-2" d="M118.58,500.84c-2.97-4.96-8.62-15.88-6.42-23.99"/>
  <path class="cls-2" d="M141.15,444.69c10.67,4.21,23.45,8.93,26.49,19.99,1.77,10.82-7.88,18.37-15.39,26.5-3.29,3.34-6.59,6.68-9.9,10.02"/>
  <path class="cls-2" d="M82.37,460.76c-4.98,6.74-10.2,13.86-9.8,22.24,1.55,12.07,14.51,15.84,25.33,20.87,4.81,2.05,9.62,4.08,14.44,6.1"/>
</svg>