<?xml version="1.0" encoding="UTF-8"?>
<svg id="_сонце" data-name="сонце" xmlns="http://www.w3.org/2000/svg" viewBox="0 0 1005 1005">
  <defs>
    <style>
      .cls-1 {
        fill: #fff;
      }
    </style>
  </defs>
  <circle class="cls-1" cx="502.5" cy="502.5" r="208.15"/>
  <rect class="cls-1" x="392.16" y="48.4" width="220.73" height="128.94" rx="64.47" ry="64.47" transform="translate(615.39 -389.66) rotate(90)"/>
  <rect class="cls-1" x="392.16" y="827.66" width="220.73" height="128.94" rx="64.47" ry="64.47" transform="translate(1394.66 389.61) rotate(90)"/>
  <rect class="cls-1" x="667.67" y="162.52" width="220.73" height="128.94" rx="64.47" ry="64.47" transform="translate(1488.7 -162.66) rotate(135)"/>
  <rect class="cls-1" x="116.65" y="713.54" width="220.73" height="128.94" rx="64.47" ry="64.47" transform="translate(937.67 1167.63) rotate(135)"/>
  <rect class="cls-1" x="781.79" y="438.03" width="220.73" height="128.94" rx="64.47" ry="64.47" transform="translate(1784.32 1005) rotate(180)"/>
  <rect class="cls-1" x="2.52" y="438.03" width="220.73" height="128.94" rx="64.47" ry="64.47" transform="translate(225.78 1005) rotate(180)"/>
  <rect class="cls-1" x="667.67" y="713.54" width="220.73" height="128.94" rx="64.47" ry="64.47" transform="translate(778.05 1878.31) rotate(-135)"/>
  <rect class="cls-1" x="116.65" y="162.52" width="220.73" height="128.94" rx="64.47" ry="64.47" transform="translate(227.03 548.01) rotate(-135)"/>
</svg>